<?xml version="1.0" encoding="UTF-8" standalone="no"?>
<!-- Created with Inkscape (http://www.inkscape.org/) -->

<svg
   xmlns:dc="http://purl.org/dc/elements/1.1/"
   xmlns:cc="http://creativecommons.org/ns#"
   xmlns:rdf="http://www.w3.org/1999/02/22-rdf-syntax-ns#"
   xmlns:svg="http://www.w3.org/2000/svg"
   xmlns="http://www.w3.org/2000/svg"
   xmlns:sodipodi="http://sodipodi.sourceforge.net/DTD/sodipodi-0.dtd"
   xmlns:inkscape="http://www.inkscape.org/namespaces/inkscape"
   width="90"
   height="380"
   viewBox="0 0 23.812501 100.54167"
   version="1.1"
   id="svg8"
   inkscape:version="0.91 r13725"
   sodipodi:docname="MyModule.svg">
  <defs
     id="defs2">
    <inkscape:perspective
       id="perspective10"
       inkscape:persp3d-origin="372.04724 : 350.78739 : 1"
       inkscape:vp_z="744.09448 : 526.18109 : 1"
       inkscape:vp_y="0 : 1000 : 0"
       inkscape:vp_x="0 : 526.18109 : 1"
       sodipodi:type="inkscape:persp3d" />
    <inkscape:perspective
       sodipodi:type="inkscape:persp3d"
       inkscape:vp_x="0 : 526.18109 : 1"
       inkscape:vp_y="0 : 1000 : 0"
       inkscape:vp_z="744.09448 : 526.18109 : 1"
       inkscape:persp3d-origin="372.04724 : 350.78739 : 1"
       id="perspective2497" />
  </defs>
  <sodipodi:namedview
     id="base"
     pagecolor="#ffffff"
     bordercolor="#666666"
     borderopacity="1.0"
     inkscape:pageopacity="0.0"
     inkscape:pageshadow="2"
     inkscape:zoom="1.4"
     inkscape:cx="194.7162"
     inkscape:cy="174.05751"
     inkscape:document-units="px"
     inkscape:current-layer="layer1"
     showgrid="false"
     units="px"
     inkscape:snap-bbox="true"
     inkscape:snap-page="true"
     inkscape:bbox-nodes="true"
     inkscape:snap-bbox-edge-midpoints="true"
     inkscape:window-width="1280"
     inkscape:window-height="755"
     inkscape:window-x="34"
     inkscape:window-y="0"
     inkscape:window-maximized="0">
    <inkscape:grid
       type="xygrid"
       id="grid3476"
       empspacing="5"
       dotted="false" />
  </sodipodi:namedview>
  <metadata
     id="metadata5">
    <rdf:RDF>
      <cc:Work
         rdf:about="">
        <dc:format>image/svg+xml</dc:format>
        <dc:type
           rdf:resource="http://purl.org/dc/dcmitype/StillImage" />
        <dc:title></dc:title>
      </cc:Work>
    </rdf:RDF>
  </metadata>
  <g
     inkscape:label="Layer 1"
     inkscape:groupmode="layer"
     id="layer1"
     transform="translate(0,-196.45832)">
    <path
       style="opacity:1;fill:#f0f0f0;fill-opacity:1;fill-rule:evenodd;stroke:none;stroke-width:0.48607069;stroke-linecap:butt;stroke-linejoin:round;stroke-miterlimit:4;stroke-dasharray:none;stroke-dashoffset:0;stroke-opacity:1;paint-order:normal"
       d="m 0,196.45832 23.8125,0 L 23.8125,297 0,297 Z"
       id="rect817"
       inkscape:connector-curvature="0" />
    <g
       style="font-style:normal;font-variant:normal;font-weight:normal;font-stretch:normal;font-size:10.58333492px;line-height:125%;font-family:Damascus;-inkscape-font-specification:Damascus;letter-spacing:0px;word-spacing:0px;fill:#000000;fill-opacity:1;stroke:none;stroke-width:1px;stroke-linecap:butt;stroke-linejoin:miter;stroke-opacity:1"
       id="text3472">
      <path
         d="m 8.4161526,213.84485 0,1.06001 0.6278687,0 q 0.3158722,0 0.4670258,-0.12984 0.1530915,-0.13177 0.1530915,-0.40113 0,-0.27131 -0.1530915,-0.3992 -0.1511536,-0.12984 -0.4670258,-0.12984 l -0.6278687,0 z m 0,-1.18985 0,0.87204 0.579422,0 q 0.2868043,0 0.4263307,-0.10658 0.1414642,-0.10852 0.1414642,-0.32944 0,-0.21898 -0.1414642,-0.3275 Q 9.2823789,212.655 8.9955746,212.655 l -0.579422,0 z m -0.3914491,-0.32169 0.9999391,0 q 0.4476472,0 0.6898805,0.18604 0.2422333,0.18603 0.2422333,0.52904 0,0.26548 -0.1240235,0.42245 -0.1240234,0.15697 -0.3643188,0.19572 0.2887421,0.062 0.4476471,0.25968 0.1608428,0.19572 0.1608428,0.49028 0,0.38757 -0.2635497,0.5988 -0.2635499,0.21123 -0.7499543,0.21123 l -1.0386965,0 0,-2.89324 z"
         style="font-size:3.96875048px"
         id="path4212" />
      <path
         d="m 11.136917,212.655 0,1.08714 0.492218,0 q 0.273239,0 0.422455,-0.14146 0.149216,-0.14147 0.149216,-0.40308 0,-0.25967 -0.149216,-0.40114 -0.149216,-0.14146 -0.422455,-0.14146 l -0.492218,0 z m -0.391449,-0.32169 0.883667,0 q 0.486405,0 0.734451,0.22092 0.249985,0.21898 0.249985,0.64337 0,0.42827 -0.249985,0.64725 -0.248046,0.21898 -0.734451,0.21898 l -0.492218,0 0,1.16272 -0.391449,0 0,-2.89324 z"
         style="font-size:3.96875048px"
         id="path4214" />
      <path
         d="m 13.140671,212.33331 0.583298,0 0.738327,1.96887 0.742203,-1.96887 0.583297,0 0,2.89324 -0.381759,0 0,-2.54055 -0.746079,1.98438 -0.393387,0 -0.746078,-1.98438 0,2.54055 -0.379822,0 0,-2.89324 z"
         style="font-size:3.96875048px"
         id="path4216" />
    </g>
    <g
       style="font-style:normal;font-variant:normal;font-weight:normal;font-stretch:normal;font-size:10.58333492px;line-height:125%;font-family:Damascus;-inkscape-font-specification:Damascus;letter-spacing:0px;word-spacing:0px;fill:#000000;fill-opacity:1;stroke:none;stroke-width:1px;stroke-linecap:butt;stroke-linejoin:miter;stroke-opacity:1"
       id="text3482">
      <path
         d="m 3.4270513,244.57515 0,0.38176 q -0.2228546,-0.10658 -0.420517,-0.15891 -0.1976624,-0.0523 -0.3817597,-0.0523 -0.3197479,0 -0.4941559,0.12402 -0.1724701,0.12403 -0.1724701,0.3527 0,0.19185 0.1143341,0.29068 0.116272,0.0969 0.4379578,0.15696 l 0.2364197,0.0485 q 0.4379578,0.0833 0.6453095,0.29456 0.2092896,0.20929 0.2092896,0.56198 0,0.42051 -0.2829285,0.63756 -0.2809906,0.21704 -0.8255311,0.21704 -0.2054138,0 -0.4379578,-0.0465 -0.2306061,-0.0465 -0.478653,-0.13759 l 0,-0.40308 q 0.2383575,0.13372 0.4670258,0.20154 0.2286682,0.0678 0.449585,0.0678 0.3352509,0 0.5174103,-0.13178 0.1821595,-0.13177 0.1821595,-0.37594 0,-0.21317 -0.1317749,-0.33332 -0.1298371,-0.12015 -0.4282685,-0.18022 l -0.2383576,-0.0465 q -0.4379578,-0.0872 -0.6336823,-0.27324 -0.1957245,-0.18603 -0.1957245,-0.51741 0,-0.3837 0.2693634,-0.60461 0.2713013,-0.22092 0.7460786,-0.22092 0.203476,0 0.4147034,0.0368 0.2112274,0.0368 0.4321442,0.11046 z"
         style="font-size:3.96875048px"
         id="path4193" />
      <path
         d="m 6.3861733,244.70305 0,0.41276 q -0.1976624,-0.18409 -0.4224549,-0.27517 -0.2228546,-0.0911 -0.4747772,-0.0911 -0.4960939,0 -0.7596437,0.30424 -0.2635498,0.30231 -0.2635498,0.87592 0,0.57167 0.2635498,0.87591 0.2635498,0.30231 0.7596437,0.30231 0.2519226,0 0.4747772,-0.0911 0.2247925,-0.0911 0.4224549,-0.27518 l 0,0.40889 q -0.2054138,0.13953 -0.4360199,0.20929 -0.2286683,0.0698 -0.4844666,0.0698 -0.6569368,0 -1.0348207,-0.40114 -0.377884,-0.40308 -0.377884,-1.09877 0,-0.69763 0.377884,-1.09877 0.3778839,-0.40308 1.0348207,-0.40308 0.2596741,0 0.4883423,0.0698 0.2306061,0.0678 0.4321442,0.20542 z"
         style="font-size:3.96875048px"
         id="path4195" />
      <path
         d="m 7.9616586,244.86583 -0.5309754,1.43983 1.0638887,0 -0.5329133,-1.43983 z m -0.2209167,-0.38564 0.4437714,0 1.102646,2.89324 -0.406952,0 -0.2635498,-0.7422 -1.3041841,0 -0.2635499,0.7422 -0.4127655,0 1.1045839,-2.89324 z"
         style="font-size:3.96875048px"
         id="path4197" />
      <path
         d="m 9.7076765,244.48019 0.3914485,0 0,2.5638 1.408829,0 0,0.32944 -1.8002775,0 0,-2.89324 z"
         style="font-size:3.96875048px"
         id="path4199" />
      <path
         d="m 11.916844,244.48019 1.829346,0 0,0.32944 -1.437897,0 0,0.85654 1.377823,0 0,0.32944 -1.377823,0 0,1.04838 1.472778,0 0,0.32944 -1.864227,0 0,-2.89324 z"
         style="font-size:3.96875048px"
         id="path4201" />
      <path
         d="m 16.135579,245.61643 q -0.201538,0 -0.303599,0.19895 -0.100769,0.19767 -0.100769,0.59557 0,0.39662 0.100769,0.59558 0.102061,0.19766 0.303599,0.19766 0.20283,0 0.303599,-0.19766 0.102061,-0.19896 0.102061,-0.59558 0,-0.3979 -0.102061,-0.59557 -0.100769,-0.19895 -0.303599,-0.19895 z m 0,-0.20671 q 0.324269,0 0.494802,0.25709 0.171824,0.2558 0.171824,0.74414 0,0.48706 -0.171824,0.74415 -0.170533,0.25579 -0.494802,0.25579 -0.32427,0 -0.496094,-0.25579 -0.170532,-0.25709 -0.170532,-0.74415 0,-0.48834 0.170532,-0.74414 0.171824,-0.25709 0.496094,-0.25709 z"
         style="font-size:2.64583373px"
         id="path4203" />
      <path
         d="m 17.108388,246.54273 0.69634,0 0,0.21187 -0.69634,0 0,-0.21187 z"
         style="font-size:2.64583373px"
         id="path4205" />
      <path
         d="m 18.442932,247.1538 0.910797,0 0,0.21963 -1.224732,0 0,-0.21963 q 0.14857,-0.15373 0.404368,-0.41212 0.257091,-0.25967 0.322978,-0.3346 0.125316,-0.14082 0.174408,-0.23771 0.05039,-0.0982 0.05039,-0.1925 0,-0.15373 -0.108521,-0.25063 -0.107228,-0.0969 -0.280344,-0.0969 -0.122732,0 -0.259675,0.0426 -0.13565,0.0426 -0.29068,0.12919 l 0,-0.26355 q 0.157614,-0.0633 0.294556,-0.0956 0.136943,-0.0323 0.250631,-0.0323 0.299723,0 0.478007,0.14987 0.178284,0.14986 0.178284,0.40049 0,0.11885 -0.04522,0.22608 -0.04392,0.10594 -0.161489,0.25063 -0.0323,0.0375 -0.205414,0.21704 -0.173116,0.17829 -0.488342,0.49997 z"
         style="font-size:2.64583373px"
         id="path4207" />
      <path
         d="m 19.78652,245.44461 0.280344,0 0.479299,0.71701 0.481883,-0.71701 0.280345,0 -0.620118,0.9263 0.661459,1.00252 -0.280345,0 -0.542602,-0.82037 -0.546479,0.82037 -0.281636,0 0.688588,-1.02965 -0.600738,-0.89917 z"
         style="font-size:2.64583373px"
         id="path4209" />
    </g>
    <g
       style="font-style:normal;font-variant:normal;font-weight:normal;font-stretch:normal;font-size:1.98437524px;line-height:125%;font-family:Damascus;-inkscape-font-specification:Damascus;letter-spacing:0px;word-spacing:0px;fill:#000000;fill-opacity:1;stroke:none;stroke-width:1px;stroke-linecap:butt;stroke-linejoin:miter;stroke-opacity:1"
       id="text4172">
      <path
         d="m 11.20668,283.98645 q -0.213165,0 -0.339126,0.15891 -0.124993,0.1589 -0.124993,0.43311 0,0.27324 0.124993,0.43214 0.125961,0.15891 0.339126,0.15891 0.213166,0 0.337189,-0.15891 0.124993,-0.1589 0.124993,-0.43214 0,-0.27421 -0.124993,-0.43311 -0.124023,-0.15891 -0.337189,-0.15891 z m 0,-0.15891 q 0.304245,0 0.486405,0.20445 0.182159,0.20348 0.182159,0.54648 0,0.34203 -0.182159,0.54648 -0.18216,0.20347 -0.486405,0.20347 -0.305214,0 -0.488342,-0.20347 -0.182159,-0.20348 -0.182159,-0.54648 0,-0.343 0.182159,-0.54648 0.183128,-0.20445 0.488342,-0.20445 z"
         style=""
         id="path4188" />
      <path
         d="m 12.181427,283.85371 0.26355,0 0.641434,1.21019 0,-1.21019 0.189911,0 0,1.44661 -0.26355,0 -0.641434,-1.21019 0,1.21019 -0.189911,0 0,-1.44661 z"
         style=""
         id="path4190" />
    </g>
    <g
       style="font-style:normal;font-variant:normal;font-weight:normal;font-stretch:normal;font-size:1.98437524px;line-height:125%;font-family:Damascus;-inkscape-font-specification:Damascus;letter-spacing:0px;word-spacing:0px;fill:#000000;fill-opacity:1;stroke:none;stroke-width:1px;stroke-linecap:butt;stroke-linejoin:miter;stroke-opacity:1"
       id="text4176">
      <path
         d="m 10.630358,275.0339 q -0.213165,0 -0.339127,0.15891 -0.124992,0.1589 -0.124992,0.43311 0,0.27324 0.124992,0.43215 0.125962,0.1589 0.339127,0.1589 0.213165,0 0.337189,-0.1589 0.124992,-0.15891 0.124992,-0.43215 0,-0.27421 -0.124992,-0.43311 -0.124024,-0.15891 -0.337189,-0.15891 z m 0,-0.1589 q 0.304245,0 0.486404,0.20444 0.18216,0.20348 0.18216,0.54648 0,0.34204 -0.18216,0.54648 -0.182159,0.20348 -0.486404,0.20348 -0.305214,0 -0.488343,-0.20348 -0.182159,-0.20347 -0.182159,-0.54648 0,-0.343 0.182159,-0.54648 0.183129,-0.20444 0.488343,-0.20444 z"
         style=""
         id="path4181" />
      <path
         d="m 11.605105,274.90116 0.831344,0 0,0.16472 -0.63562,0 0,0.42633 0.573609,0 0,0.16472 -0.573609,0 0,0.69085 -0.195724,0 0,-1.44662 z"
         style=""
         id="path4183" />
      <path
         d="m 12.74457,274.90116 0.831345,0 0,0.16472 -0.63562,0 0,0.42633 0.573608,0 0,0.16472 -0.573608,0 0,0.69085 -0.195725,0 0,-1.44662 z"
         style=""
         id="path4185" />
    </g>
  </g>
</svg>
